mtllib model.mtl
o red-panda
v 0.250000 0.656250 -0.125000
v 0.250000 0.656250 -0.500000
v 0.250000 0.281250 -0.125000
v 0.250000 0.281250 -0.500000
v -0.250000 0.656250 -0.500000
v -0.250000 0.656250 -0.125000
v -0.250000 0.281250 -0.500000
v -0.250000 0.281250 -0.125000
v -0.250000 0.656250 -0.500000
v 0.250000 0.656250 -0.500000
v -0.250000 0.656250 -0.125000
v 0.250000 0.656250 -0.125000
v -0.250000 0.281250 -0.125000
v 0.250000 0.281250 -0.125000
v -0.250000 0.281250 -0.500000
v 0.250000 0.281250 -0.500000
v -0.250000 0.656250 -0.125000
v 0.250000 0.656250 -0.125000
v -0.250000 0.281250 -0.125000
v 0.250000 0.281250 -0.125000
v 0.250000 0.656250 -0.500000
v -0.250000 0.656250 -0.500000
v 0.250000 0.281250 -0.500000
v -0.250000 0.281250 -0.500000
v -0.125000 0.781250 -0.250000
v -0.125000 0.781250 -0.312500
v -0.125000 0.656250 -0.250000
v -0.125000 0.656250 -0.312500
v -0.250000 0.781250 -0.312500
v -0.250000 0.781250 -0.250000
v -0.250000 0.656250 -0.312500
v -0.250000 0.656250 -0.250000
v -0.250000 0.781250 -0.312500
v -0.125000 0.781250 -0.312500
v -0.250000 0.781250 -0.250000
v -0.125000 0.781250 -0.250000
v -0.250000 0.656250 -0.250000
v -0.125000 0.656250 -0.250000
v -0.250000 0.656250 -0.312500
v -0.125000 0.656250 -0.312500
v -0.250000 0.781250 -0.250000
v -0.125000 0.781250 -0.250000
v -0.250000 0.656250 -0.250000
v -0.125000 0.656250 -0.250000
v -0.125000 0.781250 -0.312500
v -0.250000 0.781250 -0.312500
v -0.125000 0.656250 -0.312500
v -0.250000 0.656250 -0.312500
v 0.250000 0.781250 -0.250000
v 0.250000 0.781250 -0.312500
v 0.250000 0.656250 -0.250000
v 0.250000 0.656250 -0.312500
v 0.125000 0.781250 -0.312500
v 0.125000 0.781250 -0.250000
v 0.125000 0.656250 -0.312500
v 0.125000 0.656250 -0.250000
v 0.125000 0.781250 -0.312500
v 0.250000 0.781250 -0.312500
v 0.125000 0.781250 -0.250000
v 0.250000 0.781250 -0.250000
v 0.125000 0.656250 -0.250000
v 0.250000 0.656250 -0.250000
v 0.125000 0.656250 -0.312500
v 0.250000 0.656250 -0.312500
v 0.125000 0.781250 -0.250000
v 0.250000 0.781250 -0.250000
v 0.125000 0.656250 -0.250000
v 0.250000 0.656250 -0.250000
v 0.250000 0.781250 -0.312500
v 0.125000 0.781250 -0.312500
v 0.250000 0.656250 -0.312500
v 0.125000 0.656250 -0.312500
v 0.125000 0.468750 -0.500000
v 0.125000 0.468750 -0.625000
v 0.125000 0.281250 -0.500000
v 0.125000 0.281250 -0.625000
v -0.125000 0.468750 -0.625000
v -0.125000 0.468750 -0.500000
v -0.125000 0.281250 -0.625000
v -0.125000 0.281250 -0.500000
v -0.125000 0.468750 -0.625000
v 0.125000 0.468750 -0.625000
v -0.125000 0.468750 -0.500000
v 0.125000 0.468750 -0.500000
v -0.125000 0.281250 -0.500000
v 0.125000 0.281250 -0.500000
v -0.125000 0.281250 -0.625000
v 0.125000 0.281250 -0.625000
v -0.125000 0.468750 -0.500000
v 0.125000 0.468750 -0.500000
v -0.125000 0.281250 -0.500000
v 0.125000 0.281250 -0.500000
v 0.125000 0.468750 -0.625000
v -0.125000 0.468750 -0.625000
v 0.125000 0.281250 -0.625000
v -0.125000 0.281250 -0.625000
v 0.187500 0.593750 -0.125000
v 0.187500 0.218750 -0.125000
v 0.187500 0.593750 0.562500
v 0.187500 0.218750 0.562500
v -0.187500 0.218750 -0.125000
v -0.187500 0.593750 -0.125000
v -0.187500 0.218750 0.562500
v -0.187500 0.593750 0.562500
v -0.187500 0.218750 -0.125000
v 0.187500 0.218750 -0.125000
v -0.187500 0.593750 -0.125000
v 0.187500 0.593750 -0.125000
v -0.187500 0.593750 0.562500
v 0.187500 0.593750 0.562500
v -0.187500 0.218750 0.562500
v 0.187500 0.218750 0.562500
v -0.187500 0.593750 -0.125000
v 0.187500 0.593750 -0.125000
v -0.187500 0.593750 0.562500
v 0.187500 0.593750 0.562500
v 0.187500 0.218750 -0.125000
v -0.187500 0.218750 -0.125000
v 0.187500 0.218750 0.562500
v -0.187500 0.218750 0.562500
v 0.222500 0.335633 0.525298
v 0.222500 0.279251 0.346477
v 0.222500 0.037597 0.619269
v 0.222500 -0.018786 0.440447
v 0.035000 0.279251 0.346477
v 0.035000 0.335633 0.525298
v 0.035000 -0.018786 0.440447
v 0.035000 0.037597 0.619269
v 0.035000 0.279251 0.346477
v 0.222500 0.279251 0.346477
v 0.035000 0.335633 0.525298
v 0.222500 0.335633 0.525298
v 0.035000 0.037597 0.619269
v 0.222500 0.037597 0.619269
v 0.035000 -0.018786 0.440447
v 0.222500 -0.018786 0.440447
v 0.035000 0.335633 0.525298
v 0.222500 0.335633 0.525298
v 0.035000 0.037597 0.619269
v 0.222500 0.037597 0.619269
v 0.222500 0.279251 0.346477
v 0.035000 0.279251 0.346477
v 0.222500 -0.018786 0.440447
v 0.035000 -0.018786 0.440447
v -0.030780 0.299518 0.476519
v -0.014995 0.348047 0.296097
v -0.023731 -0.002334 0.395946
v -0.007946 0.046195 0.215524
v -0.201782 0.348047 0.279756
v -0.217567 0.299518 0.460177
v -0.194732 0.046195 0.199182
v -0.210517 -0.002334 0.379604
v -0.201782 0.348047 0.279756
v -0.014995 0.348047 0.296097
v -0.217567 0.299518 0.460177
v -0.030780 0.299518 0.476519
v -0.210517 -0.002334 0.379604
v -0.023731 -0.002334 0.395946
v -0.194732 0.046195 0.199182
v -0.007946 0.046195 0.215524
v -0.217567 0.299518 0.460177
v -0.030780 0.299518 0.476519
v -0.210517 -0.002334 0.379604
v -0.023731 -0.002334 0.395946
v -0.014995 0.348047 0.296097
v -0.201782 0.348047 0.279756
v -0.007946 0.046195 0.215524
v -0.194732 0.046195 0.199182
v 0.222500 0.287667 0.101746
v 0.222500 0.328250 -0.081310
v 0.222500 -0.017425 0.034108
v 0.222500 0.023157 -0.148947
v 0.035000 0.328250 -0.081310
v 0.035000 0.287667 0.101746
v 0.035000 0.023157 -0.148947
v 0.035000 -0.017425 0.034108
v 0.035000 0.328250 -0.081310
v 0.222500 0.328250 -0.081310
v 0.035000 0.287667 0.101746
v 0.222500 0.287667 0.101746
v 0.035000 -0.017425 0.034108
v 0.222500 -0.017425 0.034108
v 0.035000 0.023157 -0.148947
v 0.222500 0.023157 -0.148947
v 0.035000 0.287667 0.101746
v 0.222500 0.287667 0.101746
v 0.035000 -0.017425 0.034108
v 0.222500 -0.017425 0.034108
v 0.222500 0.328250 -0.081310
v 0.035000 0.328250 -0.081310
v 0.222500 0.023157 -0.148947
v 0.035000 0.023157 -0.148947
v -0.039234 0.318375 0.130027
v -0.031334 0.310248 -0.057130
v -0.035706 0.006195 0.143731
v -0.027806 -0.001931 -0.043426
v -0.218656 0.307789 -0.064930
v -0.226556 0.315915 0.122227
v -0.215128 -0.004391 -0.051226
v -0.223028 0.003736 0.135931
v -0.218656 0.307789 -0.064930
v -0.031334 0.310248 -0.057130
v -0.226556 0.315915 0.122227
v -0.039234 0.318375 0.130027
v -0.223028 0.003736 0.135931
v -0.035706 0.006195 0.143731
v -0.215128 -0.004391 -0.051226
v -0.027806 -0.001931 -0.043426
v -0.226556 0.315915 0.122227
v -0.039234 0.318375 0.130027
v -0.223028 0.003736 0.135931
v -0.035706 0.006195 0.143731
v -0.031334 0.310248 -0.057130
v -0.218656 0.307789 -0.064930
v -0.027806 -0.001931 -0.043426
v -0.215128 -0.004391 -0.051226
v 0.187500 0.596180 0.497792
v 0.187500 0.286354 0.538582
v 0.187500 0.669601 1.055480
v 0.187500 0.359775 1.096270
v -0.187500 0.286354 0.538582
v -0.187500 0.596180 0.497792
v -0.187500 0.359775 1.096270
v -0.187500 0.669601 1.055480
v -0.187500 0.286354 0.538582
v 0.187500 0.286354 0.538582
v -0.187500 0.596180 0.497792
v 0.187500 0.596180 0.497792
v -0.187500 0.669601 1.055480
v 0.187500 0.669601 1.055480
v -0.187500 0.359775 1.096270
v 0.187500 0.359775 1.096270
v -0.187500 0.596180 0.497792
v 0.187500 0.596180 0.497792
v -0.187500 0.669601 1.055480
v 0.187500 0.669601 1.055480
v 0.187500 0.286354 0.538582
v -0.187500 0.286354 0.538582
v 0.187500 0.359775 1.096270
v -0.187500 0.359775 1.096270
vt 0.015869 0.655762
vt 0.109131 0.655762
vt 0.015869 0.469238
vt 0.109131 0.469238
vt 0.234619 0.655762
vt 0.327881 0.655762
vt 0.234619 0.469238
vt 0.327881 0.469238
vt 0.234131 0.656738
vt 0.109619 0.656738
vt 0.234131 0.843262
vt 0.109619 0.843262
vt 0.359131 0.843262
vt 0.234619 0.843262
vt 0.359131 0.656738
vt 0.234619 0.656738
vt 0.328369 0.655762
vt 0.452881 0.655762
vt 0.328369 0.469238
vt 0.452881 0.469238
vt 0.109619 0.655762
vt 0.234131 0.655762
vt 0.109619 0.469238
vt 0.234131 0.469238
vt 0.234619 0.937012
vt 0.249756 0.937012
vt 0.234619 0.875488
vt 0.249756 0.875488
vt 0.281494 0.937012
vt 0.296631 0.937012
vt 0.281494 0.875488
vt 0.296631 0.875488
vt 0.281006 0.937988
vt 0.250244 0.937988
vt 0.281006 0.968262
vt 0.250244 0.968262
vt 0.312256 0.968262
vt 0.281494 0.968262
vt 0.312256 0.937988
vt 0.281494 0.937988
vt 0.297119 0.937012
vt 0.327881 0.937012
vt 0.297119 0.875488
vt 0.327881 0.875488
vt 0.250244 0.937012
vt 0.281006 0.937012
vt 0.250244 0.875488
vt 0.281006 0.875488
vt 0.125244 0.937012
vt 0.140381 0.937012
vt 0.125244 0.875488
vt 0.140381 0.875488
vt 0.172119 0.937012
vt 0.187256 0.937012
vt 0.172119 0.875488
vt 0.187256 0.875488
vt 0.171631 0.937988
vt 0.140869 0.937988
vt 0.171631 0.968262
vt 0.140869 0.968262
vt 0.202881 0.968262
vt 0.172119 0.968262
vt 0.202881 0.937988
vt 0.172119 0.937988
vt 0.187744 0.937012
vt 0.218506 0.937012
vt 0.187744 0.875488
vt 0.218506 0.875488
vt 0.140869 0.937012
vt 0.171631 0.937012
vt 0.140869 0.875488
vt 0.171631 0.875488
vt 0.109619 0.374512
vt 0.140381 0.374512
vt 0.109619 0.281738
vt 0.140381 0.281738
vt 0.203369 0.374512
vt 0.234131 0.374512
vt 0.203369 0.281738
vt 0.234131 0.281738
vt 0.202881 0.375488
vt 0.140869 0.375488
vt 0.202881 0.437012
vt 0.140869 0.437012
vt 0.265381 0.437012
vt 0.203369 0.437012
vt 0.265381 0.375488
vt 0.203369 0.375488
vt 0.234619 0.374512
vt 0.296631 0.374512
vt 0.234619 0.281738
vt 0.296631 0.281738
vt 0.140869 0.374512
vt 0.202881 0.374512
vt 0.140869 0.281738
vt 0.202881 0.281738
vt 0.375244 0.343262
vt 0.468506 0.343262
vt 0.375244 0.000488
vt 0.468506 0.000488
vt 0.562744 0.343262
vt 0.656006 0.343262
vt 0.562744 0.000488
vt 0.656006 0.000488
vt 0.562256 0.344238
vt 0.468994 0.344238
vt 0.562256 0.530762
vt 0.468994 0.530762
vt 0.656006 0.530762
vt 0.562744 0.530762
vt 0.656006 0.344238
vt 0.562744 0.344238
vt 0.656494 0.343262
vt 0.749756 0.343262
vt 0.656494 0.000488
vt 0.749756 0.000488
vt 0.468994 0.343262
vt 0.562256 0.343262
vt 0.468994 0.000488
vt 0.562256 0.000488
vt 0.203369 0.187012
vt 0.249756 0.187012
vt 0.203369 0.031738
vt 0.249756 0.031738
vt 0.297119 0.187012
vt 0.343506 0.187012
vt 0.297119 0.031738
vt 0.343506 0.031738
vt 0.296631 0.187988
vt 0.250244 0.187988
vt 0.296631 0.280762
vt 0.250244 0.280762
vt 0.343506 0.280762
vt 0.297119 0.280762
vt 0.343506 0.187988
vt 0.297119 0.187988
vt 0.343994 0.187012
vt 0.390381 0.187012
vt 0.343994 0.031738
vt 0.390381 0.031738
vt 0.250244 0.187012
vt 0.296631 0.187012
vt 0.250244 0.031738
vt 0.296631 0.031738
vt 0.047119 0.187012
vt 0.093506 0.187012
vt 0.047119 0.031738
vt 0.093506 0.031738
vt 0.140869 0.187012
vt 0.187256 0.187012
vt 0.140869 0.031738
vt 0.187256 0.031738
vt 0.140381 0.187988
vt 0.093994 0.187988
vt 0.140381 0.280762
vt 0.093994 0.280762
vt 0.187256 0.280762
vt 0.140869 0.280762
vt 0.187256 0.187988
vt 0.140869 0.187988
vt 0.187744 0.187012
vt 0.234131 0.187012
vt 0.187744 0.031738
vt 0.234131 0.031738
vt 0.093994 0.187012
vt 0.140381 0.187012
vt 0.093994 0.031738
vt 0.140381 0.031738
vt 0.203369 0.187012
vt 0.249756 0.187012
vt 0.203369 0.031738
vt 0.249756 0.031738
vt 0.297119 0.187012
vt 0.343506 0.187012
vt 0.297119 0.031738
vt 0.343506 0.031738
vt 0.296631 0.187988
vt 0.250244 0.187988
vt 0.296631 0.280762
vt 0.250244 0.280762
vt 0.343506 0.280762
vt 0.297119 0.280762
vt 0.343506 0.187988
vt 0.297119 0.187988
vt 0.343994 0.187012
vt 0.390381 0.187012
vt 0.343994 0.031738
vt 0.390381 0.031738
vt 0.250244 0.187012
vt 0.296631 0.187012
vt 0.250244 0.031738
vt 0.296631 0.031738
vt 0.047119 0.187012
vt 0.093506 0.187012
vt 0.047119 0.031738
vt 0.093506 0.031738
vt 0.140869 0.187012
vt 0.187256 0.187012
vt 0.140869 0.031738
vt 0.187256 0.031738
vt 0.140381 0.187988
vt 0.093994 0.187988
vt 0.140381 0.280762
vt 0.093994 0.280762
vt 0.187256 0.280762
vt 0.140869 0.280762
vt 0.187256 0.187988
vt 0.140869 0.187988
vt 0.187744 0.187012
vt 0.234131 0.187012
vt 0.187744 0.031738
vt 0.234131 0.031738
vt 0.093994 0.187012
vt 0.140381 0.187012
vt 0.093994 0.031738
vt 0.140381 0.031738
vt 0.406494 0.843262
vt 0.484131 0.843262
vt 0.406494 0.562988
vt 0.484131 0.562988
vt 0.578369 0.843262
vt 0.656006 0.843262
vt 0.578369 0.562988
vt 0.656006 0.562988
vt 0.577881 0.844238
vt 0.484619 0.844238
vt 0.577881 0.999512
vt 0.484619 0.999512
vt 0.671631 0.999512
vt 0.578369 0.999512
vt 0.671631 0.844238
vt 0.578369 0.844238
vt 0.656494 0.843262
vt 0.749756 0.843262
vt 0.656494 0.562988
vt 0.749756 0.562988
vt 0.484619 0.843262
vt 0.577881 0.843262
vt 0.484619 0.562988
vt 0.577881 0.562988
vn 1.000000 0.000000 0.000000
vn 1.000000 0.000000 0.000000
vn 1.000000 0.000000 0.000000
vn 1.000000 0.000000 0.000000
vn -1.000000 0.000000 0.000000
vn -1.000000 0.000000 0.000000
vn -1.000000 0.000000 0.000000
vn -1.000000 0.000000 0.000000
vn 0.000000 1.000000 0.000000
vn 0.000000 1.000000 0.000000
vn 0.000000 1.000000 0.000000
vn 0.000000 1.000000 0.000000
vn 0.000000 -1.000000 0.000000
vn 0.000000 -1.000000 0.000000
vn 0.000000 -1.000000 0.000000
vn 0.000000 -1.000000 0.000000
vn 0.000000 0.000000 1.000000
vn 0.000000 0.000000 1.000000
vn 0.000000 0.000000 1.000000
vn 0.000000 0.000000 1.000000
vn 0.000000 0.000000 -1.000000
vn 0.000000 0.000000 -1.000000
vn 0.000000 0.000000 -1.000000
vn 0.000000 0.000000 -1.000000
vn 1.000000 0.000000 0.000000
vn 1.000000 0.000000 0.000000
vn 1.000000 0.000000 0.000000
vn 1.000000 0.000000 0.000000
vn -1.000000 0.000000 0.000000
vn -1.000000 0.000000 0.000000
vn -1.000000 0.000000 0.000000
vn -1.000000 0.000000 0.000000
vn 0.000000 1.000000 0.000000
vn 0.000000 1.000000 0.000000
vn 0.000000 1.000000 0.000000
vn 0.000000 1.000000 0.000000
vn 0.000000 -1.000000 0.000000
vn 0.000000 -1.000000 0.000000
vn 0.000000 -1.000000 0.000000
vn 0.000000 -1.000000 0.000000
vn 0.000000 0.000000 1.000000
vn 0.000000 0.000000 1.000000
vn 0.000000 0.000000 1.000000
vn 0.000000 0.000000 1.000000
vn 0.000000 0.000000 -1.000000
vn 0.000000 0.000000 -1.000000
vn 0.000000 0.000000 -1.000000
vn 0.000000 0.000000 -1.000000
vn 1.000000 0.000000 0.000000
vn 1.000000 0.000000 0.000000
vn 1.000000 0.000000 0.000000
vn 1.000000 0.000000 0.000000
vn -1.000000 0.000000 0.000000
vn -1.000000 0.000000 0.000000
vn -1.000000 0.000000 0.000000
vn -1.000000 0.000000 0.000000
vn 0.000000 1.000000 0.000000
vn 0.000000 1.000000 0.000000
vn 0.000000 1.000000 0.000000
vn 0.000000 1.000000 0.000000
vn 0.000000 -1.000000 0.000000
vn 0.000000 -1.000000 0.000000
vn 0.000000 -1.000000 0.000000
vn 0.000000 -1.000000 0.000000
vn 0.000000 0.000000 1.000000
vn 0.000000 0.000000 1.000000
vn 0.000000 0.000000 1.000000
vn 0.000000 0.000000 1.000000
vn 0.000000 0.000000 -1.000000
vn 0.000000 0.000000 -1.000000
vn 0.000000 0.000000 -1.000000
vn 0.000000 0.000000 -1.000000
vn 1.000000 0.000000 0.000000
vn 1.000000 0.000000 0.000000
vn 1.000000 0.000000 0.000000
vn 1.000000 0.000000 0.000000
vn -1.000000 0.000000 0.000000
vn -1.000000 0.000000 0.000000
vn -1.000000 0.000000 0.000000
vn -1.000000 0.000000 0.000000
vn 0.000000 1.000000 0.000000
vn 0.000000 1.000000 0.000000
vn 0.000000 1.000000 0.000000
vn 0.000000 1.000000 0.000000
vn 0.000000 -1.000000 0.000000
vn 0.000000 -1.000000 0.000000
vn 0.000000 -1.000000 0.000000
vn 0.000000 -1.000000 0.000000
vn 0.000000 0.000000 1.000000
vn 0.000000 0.000000 1.000000
vn 0.000000 0.000000 1.000000
vn 0.000000 0.000000 1.000000
vn 0.000000 0.000000 -1.000000
vn 0.000000 0.000000 -1.000000
vn 0.000000 0.000000 -1.000000
vn 0.000000 0.000000 -1.000000
vn 1.000000 0.000000 0.000000
vn 1.000000 0.000000 0.000000
vn 1.000000 0.000000 0.000000
vn 1.000000 0.000000 0.000000
vn -1.000000 0.000000 0.000000
vn -1.000000 0.000000 0.000000
vn -1.000000 0.000000 0.000000
vn -1.000000 0.000000 0.000000
vn 0.000000 0.000000 -1.000000
vn 0.000000 0.000000 -1.000000
vn 0.000000 0.000000 -1.000000
vn 0.000000 0.000000 -1.000000
vn 0.000000 0.000000 1.000000
vn 0.000000 0.000000 1.000000
vn 0.000000 0.000000 1.000000
vn 0.000000 0.000000 1.000000
vn 0.000000 1.000000 0.000000
vn 0.000000 1.000000 0.000000
vn 0.000000 1.000000 0.000000
vn 0.000000 1.000000 0.000000
vn 0.000000 -1.000000 0.000000
vn 0.000000 -1.000000 0.000000
vn 0.000000 -1.000000 0.000000
vn 0.000000 -1.000000 0.000000
vn 1.000000 0.000000 0.000000
vn 1.000000 0.000000 0.000000
vn 1.000000 0.000000 0.000000
vn 1.000000 0.000000 0.000000
vn -1.000000 0.000000 0.000000
vn -1.000000 0.000000 0.000000
vn -1.000000 0.000000 0.000000
vn -1.000000 0.000000 0.000000
vn 0.000000 0.953717 -0.300706
vn 0.000000 0.953717 -0.300706
vn 0.000000 0.953717 -0.300706
vn 0.000000 0.953717 -0.300706
vn 0.000000 -0.953717 0.300706
vn 0.000000 -0.953717 0.300706
vn 0.000000 -0.953717 0.300706
vn 0.000000 -0.953717 0.300706
vn 0.000000 0.300706 0.953717
vn 0.000000 0.300706 0.953717
vn 0.000000 0.300706 0.953717
vn 0.000000 0.300706 0.953717
vn 0.000000 -0.300706 -0.953717
vn 0.000000 -0.300706 -0.953717
vn 0.000000 -0.300706 -0.953717
vn 0.000000 -0.300706 -0.953717
vn 0.996195 0.000000 0.087156
vn 0.996195 0.000000 0.087156
vn 0.996195 0.000000 0.087156
vn 0.996195 0.000000 0.087156
vn -0.996195 -0.000000 -0.087156
vn -0.996195 -0.000000 -0.087156
vn -0.996195 -0.000000 -0.087156
vn -0.996195 -0.000000 -0.087156
vn -0.022558 0.965926 0.257834
vn -0.022558 0.965926 0.257834
vn -0.022558 0.965926 0.257834
vn -0.022558 0.965926 0.257834
vn 0.022558 -0.965926 -0.257834
vn 0.022558 -0.965926 -0.257834
vn 0.022558 -0.965926 -0.257834
vn 0.022558 -0.965926 -0.257834
vn -0.084186 -0.258819 0.962250
vn -0.084186 -0.258819 0.962250
vn -0.084186 -0.258819 0.962250
vn -0.084186 -0.258819 0.962250
vn 0.084186 0.258819 -0.962250
vn 0.084186 0.258819 -0.962250
vn 0.084186 0.258819 -0.962250
vn 0.084186 0.258819 -0.962250
vn 1.000000 0.000000 0.000000
vn 1.000000 0.000000 0.000000
vn 1.000000 0.000000 0.000000
vn 1.000000 0.000000 0.000000
vn -1.000000 0.000000 0.000000
vn -1.000000 0.000000 0.000000
vn -1.000000 0.000000 0.000000
vn -1.000000 0.000000 0.000000
vn 0.000000 0.976296 0.216440
vn 0.000000 0.976296 0.216440
vn 0.000000 0.976296 0.216440
vn 0.000000 0.976296 0.216440
vn 0.000000 -0.976296 -0.216440
vn 0.000000 -0.976296 -0.216440
vn 0.000000 -0.976296 -0.216440
vn 0.000000 -0.976296 -0.216440
vn 0.000000 -0.216440 0.976296
vn 0.000000 -0.216440 0.976296
vn 0.000000 -0.216440 0.976296
vn 0.000000 -0.216440 0.976296
vn 0.000000 0.216440 -0.976296
vn 0.000000 0.216440 -0.976296
vn 0.000000 0.216440 -0.976296
vn 0.000000 0.216440 -0.976296
vn 0.999048 0.013117 0.041601
vn 0.999048 0.013117 0.041601
vn 0.999048 0.013117 0.041601
vn 0.999048 0.013117 0.041601
vn -0.999048 -0.013117 -0.041601
vn -0.999048 -0.013117 -0.041601
vn -0.999048 -0.013117 -0.041601
vn -0.999048 -0.013117 -0.041601
vn -0.011290 0.998974 -0.043854
vn -0.011290 0.998974 -0.043854
vn -0.011290 0.998974 -0.043854
vn -0.011290 0.998974 -0.043854
vn 0.011290 -0.998974 0.043854
vn 0.011290 -0.998974 0.043854
vn 0.011290 -0.998974 0.043854
vn 0.011290 -0.998974 0.043854
vn -0.042133 0.043343 0.998171
vn -0.042133 0.043343 0.998171
vn -0.042133 0.043343 0.998171
vn -0.042133 0.043343 0.998171
vn 0.042133 -0.043343 -0.998171
vn 0.042133 -0.043343 -0.998171
vn 0.042133 -0.043343 -0.998171
vn 0.042133 -0.043343 -0.998171
vn 1.000000 0.000000 0.000000
vn 1.000000 0.000000 0.000000
vn 1.000000 0.000000 0.000000
vn 1.000000 0.000000 0.000000
vn -1.000000 -0.000000 -0.000000
vn -1.000000 -0.000000 -0.000000
vn -1.000000 -0.000000 -0.000000
vn -1.000000 -0.000000 -0.000000
vn 0.000000 -0.130526 -0.991445
vn 0.000000 -0.130526 -0.991445
vn 0.000000 -0.130526 -0.991445
vn 0.000000 -0.130526 -0.991445
vn -0.000000 0.130526 0.991445
vn -0.000000 0.130526 0.991445
vn -0.000000 0.130526 0.991445
vn -0.000000 0.130526 0.991445
vn 0.000000 0.991445 -0.130526
vn 0.000000 0.991445 -0.130526
vn 0.000000 0.991445 -0.130526
vn 0.000000 0.991445 -0.130526
vn -0.000000 -0.991445 0.130526
vn -0.000000 -0.991445 0.130526
vn -0.000000 -0.991445 0.130526
vn -0.000000 -0.991445 0.130526
usemtl material_0
f 1/1/1 3/3/3 2/2/2
f 3/3/3 4/4/4 2/2/2
f 5/5/5 7/7/7 6/6/6
f 7/7/7 8/8/8 6/6/6
f 9/9/9 11/11/11 10/10/10
f 11/11/11 12/12/12 10/10/10
f 13/13/13 15/15/15 14/14/14
f 15/15/15 16/16/16 14/14/14
f 17/17/17 19/19/19 18/18/18
f 19/19/19 20/20/20 18/18/18
f 21/21/21 23/23/23 22/22/22
f 23/23/23 24/24/24 22/22/22
f 25/25/25 27/27/27 26/26/26
f 27/27/27 28/28/28 26/26/26
f 29/29/29 31/31/31 30/30/30
f 31/31/31 32/32/32 30/30/30
f 33/33/33 35/35/35 34/34/34
f 35/35/35 36/36/36 34/34/34
f 37/37/37 39/39/39 38/38/38
f 39/39/39 40/40/40 38/38/38
f 41/41/41 43/43/43 42/42/42
f 43/43/43 44/44/44 42/42/42
f 45/45/45 47/47/47 46/46/46
f 47/47/47 48/48/48 46/46/46
f 49/49/49 51/51/51 50/50/50
f 51/51/51 52/52/52 50/50/50
f 53/53/53 55/55/55 54/54/54
f 55/55/55 56/56/56 54/54/54
f 57/57/57 59/59/59 58/58/58
f 59/59/59 60/60/60 58/58/58
f 61/61/61 63/63/63 62/62/62
f 63/63/63 64/64/64 62/62/62
f 65/65/65 67/67/67 66/66/66
f 67/67/67 68/68/68 66/66/66
f 69/69/69 71/71/71 70/70/70
f 71/71/71 72/72/72 70/70/70
f 73/73/73 75/75/75 74/74/74
f 75/75/75 76/76/76 74/74/74
f 77/77/77 79/79/79 78/78/78
f 79/79/79 80/80/80 78/78/78
f 81/81/81 83/83/83 82/82/82
f 83/83/83 84/84/84 82/82/82
f 85/85/85 87/87/87 86/86/86
f 87/87/87 88/88/88 86/86/86
f 89/89/89 91/91/91 90/90/90
f 91/91/91 92/92/92 90/90/90
f 93/93/93 95/95/95 94/94/94
f 95/95/95 96/96/96 94/94/94
f 97/97/97 99/99/99 98/98/98
f 99/99/99 100/100/100 98/98/98
f 101/101/101 103/103/103 102/102/102
f 103/103/103 104/104/104 102/102/102
f 105/105/105 107/107/107 106/106/106
f 107/107/107 108/108/108 106/106/106
f 109/109/109 111/111/111 110/110/110
f 111/111/111 112/112/112 110/110/110
f 113/113/113 115/115/115 114/114/114
f 115/115/115 116/116/116 114/114/114
f 117/117/117 119/119/119 118/118/118
f 119/119/119 120/120/120 118/118/118
f 121/121/121 123/123/123 122/122/122
f 123/123/123 124/124/124 122/122/122
f 125/125/125 127/127/127 126/126/126
f 127/127/127 128/128/128 126/126/126
f 129/129/129 131/131/131 130/130/130
f 131/131/131 132/132/132 130/130/130
f 133/133/133 135/135/135 134/134/134
f 135/135/135 136/136/136 134/134/134
f 137/137/137 139/139/139 138/138/138
f 139/139/139 140/140/140 138/138/138
f 141/141/141 143/143/143 142/142/142
f 143/143/143 144/144/144 142/142/142
f 145/145/145 147/147/147 146/146/146
f 147/147/147 148/148/148 146/146/146
f 149/149/149 151/151/151 150/150/150
f 151/151/151 152/152/152 150/150/150
f 153/153/153 155/155/155 154/154/154
f 155/155/155 156/156/156 154/154/154
f 157/157/157 159/159/159 158/158/158
f 159/159/159 160/160/160 158/158/158
f 161/161/161 163/163/163 162/162/162
f 163/163/163 164/164/164 162/162/162
f 165/165/165 167/167/167 166/166/166
f 167/167/167 168/168/168 166/166/166
f 169/169/169 171/171/171 170/170/170
f 171/171/171 172/172/172 170/170/170
f 173/173/173 175/175/175 174/174/174
f 175/175/175 176/176/176 174/174/174
f 177/177/177 179/179/179 178/178/178
f 179/179/179 180/180/180 178/178/178
f 181/181/181 183/183/183 182/182/182
f 183/183/183 184/184/184 182/182/182
f 185/185/185 187/187/187 186/186/186
f 187/187/187 188/188/188 186/186/186
f 189/189/189 191/191/191 190/190/190
f 191/191/191 192/192/192 190/190/190
f 193/193/193 195/195/195 194/194/194
f 195/195/195 196/196/196 194/194/194
f 197/197/197 199/199/199 198/198/198
f 199/199/199 200/200/200 198/198/198
f 201/201/201 203/203/203 202/202/202
f 203/203/203 204/204/204 202/202/202
f 205/205/205 207/207/207 206/206/206
f 207/207/207 208/208/208 206/206/206
f 209/209/209 211/211/211 210/210/210
f 211/211/211 212/212/212 210/210/210
f 213/213/213 215/215/215 214/214/214
f 215/215/215 216/216/216 214/214/214
f 217/217/217 219/219/219 218/218/218
f 219/219/219 220/220/220 218/218/218
f 221/221/221 223/223/223 222/222/222
f 223/223/223 224/224/224 222/222/222
f 225/225/225 227/227/227 226/226/226
f 227/227/227 228/228/228 226/226/226
f 229/229/229 231/231/231 230/230/230
f 231/231/231 232/232/232 230/230/230
f 233/233/233 235/235/235 234/234/234
f 235/235/235 236/236/236 234/234/234
f 237/237/237 239/239/239 238/238/238
f 239/239/239 240/240/240 238/238/238
