# Blender 5.1.0
# www.blender.org
mtllib Untitled.mtl
o Object_9
v 0.251825 0.335559 0.092996
v 0.251812 0.329771 -0.078782
v 0.308656 0.190093 0.097893
v 0.308643 0.184305 -0.073884
v 0.193592 0.307052 -0.078012
v 0.193606 0.312840 0.093766
v 0.250423 0.161586 -0.073114
v 0.250437 0.167374 0.098663
v 0.193592 0.307052 -0.078012
v 0.251812 0.329771 -0.078782
v 0.193606 0.312840 0.093766
v 0.251825 0.335559 0.092996
v 0.250437 0.167374 0.098663
v 0.308656 0.190093 0.097893
v 0.250423 0.161586 -0.073114
v 0.308643 0.184305 -0.073884
v 0.193606 0.312840 0.093766
v 0.251825 0.335559 0.092996
v 0.250437 0.167374 0.098663
v 0.308656 0.190093 0.097893
v 0.251812 0.329771 -0.078782
v 0.193592 0.307052 -0.078012
v 0.308643 0.184305 -0.073884
v 0.250423 0.161586 -0.073114
vn 0.9315 0.3635 -0.0123
vn -0.9315 -0.3635 0.0123
vn -0.3637 0.9310 -0.0313
vn 0.3637 -0.9310 0.0313
vn 0.0001 0.0337 0.9994
vn -0.0001 -0.0337 -0.9994
vt 0.046875 0.406250
vt 0.046875 0.375000
vt 0.093750 0.406250
vt 0.093750 0.375000
vt 0.593750 0.937500
vt 0.593750 0.906250
vt 0.640625 0.937500
vt 0.640625 0.906250
vt 0.203125 0.515625
vt 0.203125 0.562500
vt 0.187500 0.515625
vt 0.187500 0.562500
vt 0.218750 0.562500
vt 0.218750 0.515625
vt 0.578125 0.390625
vt 0.578125 0.359375
vt 0.593750 0.390625
vt 0.593750 0.359375
vt 0.562500 0.390625
vt 0.562500 0.359375
s 0
usemtl material_0.001
f 1/1/1 3/2/1 2/3/1
f 3/2/1 4/4/1 2/3/1
f 5/5/2 7/6/2 6/7/2
f 7/6/2 8/8/2 6/7/2
f 9/9/3 11/10/3 10/11/3
f 11/10/3 12/12/3 10/11/3
f 13/13/4 15/14/4 14/10/4
f 15/14/4 16/9/4 14/10/4
f 17/15/5 19/16/5 18/17/5
f 19/16/5 20/18/5 18/17/5
f 21/19/6 23/20/6 22/15/6
f 23/20/6 24/16/6 22/15/6
o Object_12
v -0.193610 0.313353 0.093756
v -0.193610 0.314329 -0.078116
v -0.253405 0.168999 0.092936
v -0.253405 0.169975 -0.078936
v -0.251353 0.338247 -0.077980
v -0.251353 0.337270 0.093892
v -0.311147 0.193893 -0.078800
v -0.311147 0.192916 0.093072
v -0.251353 0.338247 -0.077980
v -0.193610 0.314329 -0.078116
v -0.251353 0.337270 0.093892
v -0.193610 0.313353 0.093756
v -0.311147 0.192916 0.093072
v -0.253405 0.168999 0.092936
v -0.311147 0.193893 -0.078800
v -0.253405 0.169975 -0.078936
v -0.251353 0.337270 0.093892
v -0.193610 0.313353 0.093756
v -0.311147 0.192916 0.093072
v -0.253405 0.168999 0.092936
v -0.193610 0.314329 -0.078116
v -0.251353 0.338247 -0.077980
v -0.253405 0.169975 -0.078936
v -0.311147 0.193893 -0.078800
vn 0.9239 -0.3827 -0.0022
vn -0.9239 0.3827 0.0022
vn 0.3827 0.9239 0.0052
vn -0.3827 -0.9239 -0.0052
vn -0.0000 -0.0057 1.0000
vn -0.0000 0.0057 -1.0000
vt 0.500000 0.421875
vt 0.500000 0.375000
vt 0.546875 0.421875
vt 0.546875 0.375000
vt 0.578125 0.468750
vt 0.578125 0.421875
vt 0.625000 0.468750
vt 0.625000 0.421875
vt 0.625000 0.750000
vt 0.625000 0.796875
vt 0.609375 0.750000
vt 0.609375 0.796875
vt 0.562500 0.390625
vt 0.562500 0.343750
vt 0.546875 0.390625
vt 0.546875 0.343750
vt 0.593750 0.421875
vt 0.593750 0.375000
vt 0.609375 0.421875
vt 0.609375 0.375000
vt 0.593750 0.796875
vt 0.593750 0.750000
s 0
usemtl material_0.001
f 25/21/7 27/22/7 26/23/7
f 27/22/7 28/24/7 26/23/7
f 29/25/8 31/26/8 30/27/8
f 31/26/8 32/28/8 30/27/8
f 33/29/9 35/30/9 34/31/9
f 35/30/9 36/32/9 34/31/9
f 37/33/10 39/34/10 38/35/10
f 39/34/10 40/36/10 38/35/10
f 41/37/11 43/38/11 42/39/11
f 43/38/11 44/40/11 42/39/11
f 45/41/12 47/42/12 46/32/12
f 47/42/12 48/31/12 46/32/12
o Object_14
v 0.250000 0.437500 0.218750
v 0.250000 0.437500 -0.218750
v 0.250000 0.125000 0.218750
v 0.250000 0.125000 -0.218750
v -0.250000 0.437500 -0.218750
v -0.250000 0.437500 0.218750
v -0.250000 0.125000 -0.218750
v -0.250000 0.125000 0.218750
v -0.250000 0.437500 -0.218750
v 0.250000 0.437500 -0.218750
v -0.250000 0.437500 0.218750
v 0.250000 0.437500 0.218750
v -0.250000 0.125000 0.218750
v 0.250000 0.125000 0.218750
v -0.250000 0.125000 -0.218750
v 0.250000 0.125000 -0.218750
v -0.250000 0.437500 0.218750
v 0.250000 0.437500 0.218750
v -0.250000 0.125000 0.218750
v 0.250000 0.125000 0.218750
v 0.250000 0.437500 -0.218750
v -0.250000 0.437500 -0.218750
v 0.250000 0.125000 -0.218750
v -0.250000 0.125000 -0.218750
vn 1.0000 -0.0000 -0.0000
vn -1.0000 -0.0000 -0.0000
vn -0.0000 1.0000 -0.0000
vn -0.0000 -1.0000 -0.0000
vn -0.0000 -0.0000 1.0000
vn -0.0000 -0.0000 -1.0000
vt 0.468750 0.562500
vt 0.468750 0.484375
vt 0.578125 0.562500
vt 0.578125 0.484375
vt 0.187500 0.500000
vt 0.187500 0.421875
vt 0.296875 0.500000
vt 0.296875 0.421875
vt 0.343750 0.578125
vt 0.343750 0.687500
vt 0.218750 0.578125
vt 0.218750 0.687500
vt 0.468750 0.687500
vt 0.468750 0.578125
vt 0.343750 0.500000
vt 0.468750 0.500000
vt 0.218750 0.500000
s 0
usemtl material_0.001
f 49/43/13 51/44/13 50/45/13
f 51/44/13 52/46/13 50/45/13
f 53/47/14 55/48/14 54/49/14
f 55/48/14 56/50/14 54/49/14
f 57/51/15 59/52/15 58/53/15
f 59/52/15 60/54/15 58/53/15
f 61/55/16 63/56/16 62/52/16
f 63/56/16 64/51/16 62/52/16
f 65/51/17 67/57/17 66/56/17
f 67/57/17 68/58/17 66/56/17
f 69/53/18 71/59/18 70/51/18
f 71/59/18 72/57/18 70/51/18
o Object_17
v -0.062500 0.125000 0.093750
v -0.062500 0.125000 -0.078125
v -0.062500 -0.000000 0.093750
v -0.062500 -0.000000 -0.078125
v -0.218750 0.125000 -0.078125
v -0.218750 0.125000 0.093750
v -0.218750 -0.000000 -0.078125
v -0.218750 -0.000000 0.093750
v -0.218750 0.125000 -0.078125
v -0.062500 0.125000 -0.078125
v -0.218750 0.125000 0.093750
v -0.062500 0.125000 0.093750
v -0.218750 -0.000000 0.093750
v -0.062500 -0.000000 0.093750
v -0.218750 -0.000000 -0.078125
v -0.062500 -0.000000 -0.078125
v -0.218750 0.125000 0.093750
v -0.062500 0.125000 0.093750
v -0.218750 -0.000000 0.093750
v -0.062500 -0.000000 0.093750
v -0.062500 0.125000 -0.078125
v -0.218750 0.125000 -0.078125
v -0.062500 -0.000000 -0.078125
v -0.218750 -0.000000 -0.078125
vn 1.0000 -0.0000 -0.0000
vn -1.0000 -0.0000 -0.0000
vn -0.0000 1.0000 -0.0000
vn -0.0000 -1.0000 -0.0000
vn -0.0000 -0.0000 1.0000
vn -0.0000 -0.0000 -1.0000
vt 0.593750 0.906250
vt 0.593750 0.875000
vt 0.640625 0.906250
vt 0.640625 0.875000
vt 0.140625 0.406250
vt 0.140625 0.375000
vt 0.187500 0.406250
vt 0.187500 0.375000
vt 0.500000 0.375000
vt 0.500000 0.421875
vt 0.453125 0.375000
vt 0.453125 0.421875
vt 0.625000 0.515625
vt 0.625000 0.468750
vt 0.578125 0.515625
vt 0.578125 0.468750
vt 0.593750 0.843750
vt 0.640625 0.843750
vt 0.093750 0.406250
vt 0.093750 0.375000
s 0
usemtl material_0.001
f 73/60/19 75/61/19 74/62/19
f 75/61/19 76/63/19 74/62/19
f 77/64/20 79/65/20 78/66/20
f 79/65/20 80/67/20 78/66/20
f 81/68/21 83/69/21 82/70/21
f 83/69/21 84/71/21 82/70/21
f 85/72/22 87/73/22 86/74/22
f 87/73/22 88/75/22 86/74/22
f 89/61/23 91/76/23 90/63/23
f 91/76/23 92/77/23 90/63/23
f 93/78/24 95/79/24 94/64/24
f 95/79/24 96/65/24 94/64/24
o Object_19
v -0.062500 0.062500 -0.078125
v -0.062500 0.062500 -0.125000
v -0.062500 -0.000000 -0.078125
v -0.062500 -0.000000 -0.125000
v -0.218750 0.062500 -0.125000
v -0.218750 0.062500 -0.078125
v -0.218750 -0.000000 -0.125000
v -0.218750 -0.000000 -0.078125
v -0.218750 0.062500 -0.125000
v -0.062500 0.062500 -0.125000
v -0.218750 0.062500 -0.078125
v -0.062500 0.062500 -0.078125
v -0.218750 -0.000000 -0.078125
v -0.062500 -0.000000 -0.078125
v -0.218750 -0.000000 -0.125000
v -0.062500 -0.000000 -0.125000
v -0.218750 0.062500 -0.078125
v -0.062500 0.062500 -0.078125
v -0.218750 -0.000000 -0.078125
v -0.062500 -0.000000 -0.078125
v -0.062500 0.062500 -0.125000
v -0.218750 0.062500 -0.125000
v -0.062500 -0.000000 -0.125000
v -0.218750 -0.000000 -0.125000
vn 1.0000 -0.0000 -0.0000
vn -1.0000 -0.0000 -0.0000
vn -0.0000 1.0000 -0.0000
vn -0.0000 -1.0000 -0.0000
vn -0.0000 -0.0000 1.0000
vn -0.0000 -0.0000 -1.0000
vt 0.187500 0.515625
vt 0.187500 0.500000
vt 0.203125 0.515625
vt 0.203125 0.500000
vt 0.218750 0.515625
vt 0.218750 0.500000
vt 0.656250 0.375000
vt 0.656250 0.390625
vt 0.609375 0.375000
vt 0.609375 0.390625
vt 0.046875 0.375000
vt 0.046875 0.359375
vt 0.000000 0.375000
vt 0.000000 0.359375
vt 0.609375 0.406250
vt 0.656250 0.406250
vt 0.609375 0.421875
vt 0.656250 0.421875
s 0
usemtl material_0.001
f 97/80/25 99/81/25 98/82/25
f 99/81/25 100/83/25 98/82/25
f 101/82/26 103/83/26 102/84/26
f 103/83/26 104/85/26 102/84/26
f 105/86/27 107/87/27 106/88/27
f 107/87/27 108/89/27 106/88/27
f 109/90/28 111/91/28 110/92/28
f 111/91/28 112/93/28 110/92/28
f 113/94/29 115/89/29 114/95/29
f 115/89/29 116/87/29 114/95/29
f 117/96/30 119/94/30 118/97/30
f 119/94/30 120/95/30 118/97/30
o Object_22
v 0.218750 0.125000 0.093750
v 0.218750 0.125000 -0.078125
v 0.218750 -0.000000 0.093750
v 0.218750 -0.000000 -0.078125
v 0.062500 0.125000 -0.078125
v 0.062500 0.125000 0.093750
v 0.062500 -0.000000 -0.078125
v 0.062500 -0.000000 0.093750
v 0.062500 0.125000 -0.078125
v 0.218750 0.125000 -0.078125
v 0.062500 0.125000 0.093750
v 0.218750 0.125000 0.093750
v 0.062500 -0.000000 0.093750
v 0.218750 -0.000000 0.093750
v 0.062500 -0.000000 -0.078125
v 0.218750 -0.000000 -0.078125
v 0.062500 0.125000 0.093750
v 0.218750 0.125000 0.093750
v 0.062500 -0.000000 0.093750
v 0.218750 -0.000000 0.093750
v 0.218750 0.125000 -0.078125
v 0.062500 0.125000 -0.078125
v 0.218750 -0.000000 -0.078125
v 0.062500 -0.000000 -0.078125
vn 1.0000 -0.0000 -0.0000
vn -1.0000 -0.0000 -0.0000
vn -0.0000 1.0000 -0.0000
vn -0.0000 -1.0000 -0.0000
vn -0.0000 -0.0000 1.0000
vn -0.0000 -0.0000 -1.0000
vt 0.000000 0.406250
vt 0.000000 0.375000
vt 0.046875 0.406250
vt 0.046875 0.375000
vt 0.593750 0.968750
vt 0.593750 0.937500
vt 0.640625 0.968750
vt 0.640625 0.937500
vt 0.296875 0.375000
vt 0.296875 0.421875
vt 0.250000 0.375000
vt 0.250000 0.421875
vt 0.625000 0.562500
vt 0.625000 0.515625
vt 0.578125 0.562500
vt 0.578125 0.515625
vt 0.593750 1.000000
vt 0.640625 1.000000
vt 0.546875 0.421875
vt 0.546875 0.390625
vt 0.593750 0.421875
vt 0.593750 0.390625
s 0
usemtl material_0.001
f 121/98/31 123/99/31 122/100/31
f 123/99/31 124/101/31 122/100/31
f 125/102/32 127/103/32 126/104/32
f 127/103/32 128/105/32 126/104/32
f 129/106/33 131/107/33 130/108/33
f 131/107/33 132/109/33 130/108/33
f 133/110/34 135/111/34 134/112/34
f 135/111/34 136/113/34 134/112/34
f 137/114/35 139/102/35 138/115/35
f 139/102/35 140/104/35 138/115/35
f 141/116/36 143/117/36 142/118/36
f 143/117/36 144/119/36 142/118/36
o Object_24
v 0.218750 0.062500 -0.078125
v 0.218750 0.062500 -0.125000
v 0.218750 -0.000000 -0.078125
v 0.218750 -0.000000 -0.125000
v 0.062500 0.062500 -0.125000
v 0.062500 0.062500 -0.078125
v 0.062500 -0.000000 -0.125000
v 0.062500 -0.000000 -0.078125
v 0.062500 0.062500 -0.125000
v 0.218750 0.062500 -0.125000
v 0.062500 0.062500 -0.078125
v 0.218750 0.062500 -0.078125
v 0.062500 -0.000000 -0.078125
v 0.218750 -0.000000 -0.078125
v 0.062500 -0.000000 -0.125000
v 0.218750 -0.000000 -0.125000
v 0.062500 0.062500 -0.078125
v 0.218750 0.062500 -0.078125
v 0.062500 -0.000000 -0.078125
v 0.218750 -0.000000 -0.078125
v 0.218750 0.062500 -0.125000
v 0.062500 0.062500 -0.125000
v 0.218750 -0.000000 -0.125000
v 0.062500 -0.000000 -0.125000
vn 1.0000 -0.0000 -0.0000
vn -1.0000 -0.0000 -0.0000
vn -0.0000 1.0000 -0.0000
vn -0.0000 -1.0000 -0.0000
vn -0.0000 -0.0000 1.0000
vn -0.0000 -0.0000 -1.0000
vt 0.453125 0.500000
vt 0.453125 0.484375
vt 0.468750 0.500000
vt 0.468750 0.484375
vt 0.625000 0.781250
vt 0.625000 0.765625
vt 0.640625 0.781250
vt 0.640625 0.765625
vt 0.187500 0.359375
vt 0.187500 0.375000
vt 0.140625 0.359375
vt 0.140625 0.375000
vt 0.671875 0.796875
vt 0.671875 0.781250
vt 0.625000 0.796875
vt 0.093750 0.375000
vt 0.093750 0.359375
vt 0.046875 0.375000
vt 0.046875 0.359375
s 0
usemtl material_0.001
f 145/120/37 147/121/37 146/122/37
f 147/121/37 148/123/37 146/122/37
f 149/124/38 151/125/38 150/126/38
f 151/125/38 152/127/38 150/126/38
f 153/128/39 155/129/39 154/130/39
f 155/129/39 156/131/39 154/130/39
f 157/132/40 159/133/40 158/134/40
f 159/133/40 160/124/40 158/134/40
f 161/135/41 163/136/41 162/131/41
f 163/136/41 164/130/41 162/131/41
f 165/137/42 167/138/42 166/135/42
f 167/138/42 168/136/42 166/135/42
o Object_28
v 0.437745 0.938051 0.437018
v 0.437728 0.935842 -0.437979
v 0.437429 0.688052 0.437649
v 0.437412 0.685843 -0.437348
v -0.437272 0.936947 -0.437965
v -0.437254 0.939157 0.437033
v -0.437587 0.686948 -0.437334
v -0.437570 0.689158 0.437664
v -0.437272 0.936947 -0.437965
v 0.437728 0.935842 -0.437979
v -0.437254 0.939157 0.437033
v 0.437745 0.938051 0.437018
v -0.437570 0.689158 0.437664
v 0.437429 0.688052 0.437649
v -0.437587 0.686948 -0.437334
v 0.437412 0.685843 -0.437348
v -0.437254 0.939157 0.437033
v 0.437745 0.938051 0.437018
v -0.437570 0.689158 0.437664
v 0.437429 0.688052 0.437649
v 0.437728 0.935842 -0.437979
v -0.437272 0.936947 -0.437965
v 0.437412 0.685843 -0.437348
v -0.437587 0.686948 -0.437334
vn 1.0000 -0.0013 -0.0000
vn -1.0000 0.0013 -0.0000
vn 0.0013 1.0000 -0.0025
vn -0.0013 -1.0000 0.0025
vn -0.0000 0.0025 1.0000
vn -0.0000 -0.0025 -1.0000
vt 0.375000 0.937500
vt 0.375000 0.875000
vt 0.593750 0.937500
vt 0.593750 0.875000
vt 0.375000 0.812500
vt 0.375000 0.750000
vt 0.593750 0.812500
vt 0.593750 0.750000
vt 0.218750 0.781250
vt 0.218750 1.000000
vt 0.000000 0.781250
vt 0.000000 1.000000
vt 0.218750 0.562500
vt 0.000000 0.562500
vt 0.375000 1.000000
vt 0.593750 1.000000
s 0
usemtl material_0.001
f 169/139/43 171/140/43 170/141/43
f 171/140/43 172/142/43 170/141/43
f 173/143/44 175/144/44 174/145/44
f 175/144/44 176/146/44 174/145/44
f 177/147/45 179/148/45 178/149/45
f 179/148/45 180/150/45 178/149/45
f 181/147/46 183/151/46 182/149/46
f 183/151/46 184/152/46 182/149/46
f 185/140/47 187/143/47 186/142/47
f 187/143/47 188/145/47 186/142/47
f 189/153/48 191/139/48 190/154/48
f 191/139/48 192/141/48 190/154/48
o Object_30
v 0.312901 1.062893 0.311705
v 0.312888 1.061315 -0.313293
v 0.312743 0.937894 0.312020
v 0.312730 0.936316 -0.312978
v -0.312111 1.062105 -0.313283
v -0.312099 1.063683 0.311715
v -0.312269 0.937105 -0.312967
v -0.312257 0.938683 0.312031
v -0.312111 1.062105 -0.313283
v 0.312888 1.061315 -0.313293
v -0.312099 1.063683 0.311715
v 0.312901 1.062893 0.311705
v -0.312257 0.938683 0.312031
v 0.312743 0.937894 0.312020
v -0.312269 0.937105 -0.312967
v 0.312730 0.936316 -0.312978
v -0.312099 1.063683 0.311715
v 0.312901 1.062893 0.311705
v -0.312257 0.938683 0.312031
v 0.312743 0.937894 0.312020
v 0.312888 1.061315 -0.313293
v -0.312111 1.062105 -0.313283
v 0.312730 0.936316 -0.312978
v -0.312269 0.937105 -0.312967
vn 1.0000 -0.0013 -0.0000
vn -1.0000 0.0013 -0.0000
vn 0.0013 1.0000 -0.0025
vn -0.0013 -1.0000 0.0025
vn -0.0000 0.0025 1.0000
vn -0.0000 -0.0025 -1.0000
vt 0.562500 0.656250
vt 0.562500 0.625000
vt 0.718750 0.656250
vt 0.718750 0.625000
vt 0.562500 0.593750
vt 0.562500 0.562500
vt 0.718750 0.593750
vt 0.718750 0.562500
vt 0.375000 0.843750
vt 0.375000 1.000000
vt 0.218750 0.843750
vt 0.218750 1.000000
vt 0.375000 0.687500
vt 0.218750 0.687500
vt 0.562500 0.687500
vt 0.718750 0.687500
s 0
usemtl material_0.001
f 193/155/49 195/156/49 194/157/49
f 195/156/49 196/158/49 194/157/49
f 197/159/50 199/160/50 198/161/50
f 199/160/50 200/162/50 198/161/50
f 201/163/51 203/164/51 202/165/51
f 203/164/51 204/166/51 202/165/51
f 205/163/52 207/167/52 206/165/52
f 207/167/52 208/168/52 206/165/52
f 209/156/53 211/159/53 210/158/53
f 211/159/53 212/161/53 210/158/53
f 213/169/54 215/155/54 214/170/54
f 215/155/54 216/157/54 214/170/54
o Object_32
v 0.125476 1.125156 0.124051
v 0.125471 1.124525 -0.125949
v 0.125397 1.062657 0.124208
v 0.125392 1.062026 -0.125791
v -0.124529 1.124841 -0.125944
v -0.124524 1.125472 0.124055
v -0.124608 1.062341 -0.125787
v -0.124603 1.062973 0.124213
v -0.124529 1.124841 -0.125944
v 0.125471 1.124525 -0.125949
v -0.124524 1.125472 0.124055
v 0.125476 1.125156 0.124051
v -0.124603 1.062973 0.124213
v 0.125397 1.062657 0.124208
v -0.124608 1.062341 -0.125787
v 0.125392 1.062026 -0.125791
v -0.124524 1.125472 0.124055
v 0.125476 1.125156 0.124051
v -0.124603 1.062973 0.124213
v 0.125397 1.062657 0.124208
v 0.125471 1.124525 -0.125949
v -0.124529 1.124841 -0.125944
v 0.125392 1.062026 -0.125791
v -0.124608 1.062341 -0.125787
vn 1.0000 -0.0013 -0.0000
vn -1.0000 0.0013 -0.0000
vn 0.0013 1.0000 -0.0025
vn -0.0013 -1.0000 0.0025
vn -0.0000 0.0025 1.0000
vn -0.0000 -0.0025 -1.0000
vt 0.593750 0.843750
vt 0.593750 0.828125
vt 0.656250 0.843750
vt 0.656250 0.828125
vt 0.593750 0.812500
vt 0.593750 0.796875
vt 0.656250 0.812500
vt 0.656250 0.796875
vt 0.250000 0.359375
vt 0.250000 0.421875
vt 0.187500 0.359375
vt 0.187500 0.421875
vt 0.453125 0.421875
vt 0.453125 0.359375
vt 0.390625 0.421875
vt 0.390625 0.359375
vt 0.390625 0.500000
vt 0.390625 0.484375
vt 0.453125 0.500000
vt 0.453125 0.484375
s 0
usemtl material_0.001
f 217/171/55 219/172/55 218/173/55
f 219/172/55 220/174/55 218/173/55
f 221/175/56 223/176/56 222/177/56
f 223/176/56 224/178/56 222/177/56
f 225/179/57 227/180/57 226/181/57
f 227/180/57 228/182/57 226/181/57
f 229/183/58 231/184/58 230/185/58
f 231/184/58 232/186/58 230/185/58
f 233/172/59 235/175/59 234/174/59
f 235/175/59 236/177/59 234/174/59
f 237/187/60 239/188/60 238/189/60
f 239/188/60 240/190/60 238/189/60
o Object_34
v 0.187500 0.687500 0.187500
v 0.187500 0.687500 -0.187500
v 0.187500 0.437500 0.187500
v 0.187500 0.437500 -0.187500
v -0.187500 0.687500 -0.187500
v -0.187500 0.687500 0.187500
v -0.187500 0.437500 -0.187500
v -0.187500 0.437500 0.187500
v -0.187500 0.687500 -0.187500
v 0.187500 0.687500 -0.187500
v -0.187500 0.687500 0.187500
v 0.187500 0.687500 0.187500
v -0.187500 0.437500 0.187500
v 0.187500 0.437500 0.187500
v -0.187500 0.437500 -0.187500
v 0.187500 0.437500 -0.187500
v -0.187500 0.687500 0.187500
v 0.187500 0.687500 0.187500
v -0.187500 0.437500 0.187500
v 0.187500 0.437500 0.187500
v 0.187500 0.687500 -0.187500
v -0.187500 0.687500 -0.187500
v 0.187500 0.437500 -0.187500
v -0.187500 0.437500 -0.187500
vn 1.0000 -0.0000 -0.0000
vn -1.0000 -0.0000 -0.0000
vn -0.0000 1.0000 -0.0000
vn -0.0000 -1.0000 -0.0000
vn -0.0000 -0.0000 1.0000
vn -0.0000 -0.0000 -1.0000
vt 0.093750 0.468750
vt 0.093750 0.406250
vt 0.187500 0.468750
vt 0.187500 0.406250
vt 0.296875 0.437500
vt 0.296875 0.375000
vt 0.390625 0.437500
vt 0.390625 0.375000
vt 0.562500 0.656250
vt 0.562500 0.750000
vt 0.468750 0.656250
vt 0.468750 0.750000
vt 0.562500 0.562500
vt 0.468750 0.562500
vt 0.562500 0.687500
vt 0.656250 0.750000
vt 0.656250 0.687500
vt 0.000000 0.468750
vt 0.000000 0.406250
s 0
usemtl material_0.001
f 241/191/61 243/192/61 242/193/61
f 243/192/61 244/194/61 242/193/61
f 245/195/62 247/196/62 246/197/62
f 247/196/62 248/198/62 246/197/62
f 249/199/63 251/200/63 250/201/63
f 251/200/63 252/202/63 250/201/63
f 253/199/64 255/203/64 254/201/64
f 255/203/64 256/204/64 254/201/64
f 257/200/65 259/205/65 258/206/65
f 259/205/65 260/207/65 258/206/65
f 261/208/66 263/209/66 262/191/66
f 263/209/66 264/192/66 262/191/66
